<svg width="24" height="24" viewBox="0 0 24 24" fill="none" xmlns="http://www.w3.org/2000/svg">
<g id="Frame">
<path id="Vector" fill-rule="evenodd" clip-rule="evenodd" d="M14.85 14.2819C16.0253 13.6476 16.9555 12.6393 17.493 11.4167C18.0306 10.1941 18.1449 8.82709 17.8178 7.5322C17.4907 6.23731 16.7409 5.08858 15.6872 4.26795C14.6335 3.44732 13.3361 3.00171 12.0005 3.00171C10.6649 3.00171 9.36755 3.44732 8.31384 4.26795C7.26013 5.08858 6.51034 6.23731 6.18324 7.5322C5.85613 8.82709 5.97041 10.1941 6.50798 11.4167C7.04555 12.6393 7.97566 13.6476 9.151 14.2819C5.962 14.8669 3 16.2299 3 16.9999V20.9999H21V16.9999C21 16.2299 18.038 14.8679 14.85 14.2819ZM16 8.99989C16 10.0608 15.5786 11.0782 14.8284 11.8283C14.0783 12.5785 13.0609 12.9999 12 12.9999C10.9391 12.9999 9.92172 12.5785 9.17157 11.8283C8.42143 11.0782 8 10.0608 8 8.99989C8 7.93903 8.42143 6.92161 9.17157 6.17147C9.92172 5.42132 10.9391 4.99989 12 4.99989C13.0609 4.99989 14.0783 5.42132 14.8284 6.17147C15.5786 6.92161 16 7.93903 16 8.99989ZM19 17.7479V18.9999H5V17.7479C5.377 17.5299 5.947 17.2679 6.673 17.0079C8.269 16.4379 10.287 15.9999 12 15.9999C13.713 15.9999 15.73 16.4379 17.327 17.0089C18.053 17.2679 18.623 17.5299 19 17.7489V17.7479Z" fill="#0D1421"/>
</g>
</svg>
